<svg width="48" height="48" viewBox="0 0 48 48" fill="none" xmlns="http://www.w3.org/2000/svg">
<path d="M24 48C37.2548 48 48 37.2548 48 24C48 10.7452 37.2548 0 24 0C10.7452 0 0 10.7452 0 24C0 37.2548 10.7452 48 24 48Z" fill="#F1F8FF"/>
<path d="M27 19.0001C27.5304 19.0001 28.0391 19.2108 28.4142 19.5859C28.7893 19.9609 29 20.4696 29 21.0001M33 21.0001C33.0003 21.9372 32.781 22.8615 32.3598 23.6986C31.9386 24.5358 31.3271 25.2627 30.5744 25.821C29.8216 26.3792 28.9486 26.7535 28.0252 26.9136C27.1018 27.0737 26.1538 27.0153 25.257 26.7431L23 29.0001H21V31.0001H19V33.0001H16C15.7348 33.0001 15.4804 32.8947 15.2929 32.7072C15.1054 32.5196 15 32.2653 15 32.0001V29.4141C15.0001 29.1489 15.1055 28.8946 15.293 28.7071L21.257 22.7431C21.0074 21.9181 20.9386 21.049 21.055 20.195C21.1715 19.341 21.4706 18.5221 21.932 17.7941C22.3934 17.0661 23.0062 16.446 23.7287 15.9761C24.4512 15.5062 25.2665 15.1974 26.1191 15.0709C26.9716 14.9443 27.8415 15.003 28.6693 15.2428C29.4972 15.4826 30.2637 15.8979 30.9166 16.4605C31.5696 17.0232 32.0936 17.7199 32.4531 18.5032C32.8127 19.2866 32.9992 20.1382 33 21.0001Z" stroke="#1AA3FF" stroke-width="2" stroke-linecap="round" stroke-linejoin="round"/>
</svg>
